<svg id="Layer_1" enable-background="new 0 0 512 512" height="512" viewBox="0 0 512 512" width="512" xmlns="http://www.w3.org/2000/svg"><g><path d="m14.996 238.694c0 4.139-3.345 7.512-7.483 7.512-4.139 0-7.512-3.374-7.512-7.512v-169.542c0-12.643 5.159-24.151 13.493-32.485s19.843-13.493 32.485-13.493h420.071c12.643 0 24.123 5.159 32.457 13.493 8.306 8.306 13.465 19.814 13.465 32.485 0 4.11-3.345 7.455-7.455 7.455-4.139 0-7.484-3.345-7.484-7.455 0-8.504-3.487-16.243-9.128-21.884-5.612-5.613-13.351-9.1-21.855-9.1h-420.072c-8.504 0-16.242 3.487-21.883 9.1-5.613 5.641-9.1 13.379-9.1 21.884v169.542zm338.658-157.976c-4.138 0-7.483-3.345-7.483-7.512 0-4.139 3.345-7.484 7.483-7.484h106.443c4.138 0 7.512 3.345 7.512 7.484 0 4.166-3.374 7.512-7.512 7.512zm0 150.861c-4.138 0-7.483-3.373-7.483-7.512s3.345-7.512 7.483-7.512h106.443c4.138 0 7.512 3.373 7.512 7.512s-3.374 7.512-7.512 7.512zm0 26.873c-4.138 0-7.483-3.345-7.483-7.483s3.345-7.512 7.483-7.512h85.636c4.139 0 7.483 3.374 7.483 7.512 0 4.139-3.345 7.483-7.483 7.483zm0-102.303c-4.138 0-7.483-3.373-7.483-7.513 0-4.138 3.345-7.483 7.483-7.483h106.443c4.138 0 7.512 3.345 7.512 7.483 0 4.139-3.374 7.513-7.512 7.513zm0 26.872c-4.138 0-7.483-3.345-7.483-7.483s3.345-7.512 7.483-7.512h85.636c4.139 0 7.483 3.373 7.483 7.512s-3.345 7.483-7.483 7.483zm0-75.402c-4.138 0-7.483-3.374-7.483-7.512 0-4.139 3.345-7.512 7.483-7.512h85.636c4.139 0 7.483 3.373 7.483 7.512s-3.345 7.512-7.483 7.512zm-56.636 25.03c8.135 0 15.505 3.288 20.834 8.617 5.33 5.33 8.618 12.7 8.618 20.835 0 8.107-3.288 15.477-8.618 20.807-5.329 5.329-12.699 8.617-20.834 8.617-8.136 0-15.478-3.288-20.807-8.617s-8.617-12.699-8.617-20.807c0-8.135 3.288-15.505 8.617-20.835 5.329-5.329 12.671-8.617 20.807-8.617zm10.205 19.219c-2.608-2.608-6.208-4.224-10.205-4.224-3.969 0-7.597 1.616-10.205 4.224-2.608 2.636-4.224 6.236-4.224 10.233 0 3.969 1.616 7.597 4.224 10.205s6.236 4.224 10.205 4.224c3.997 0 7.597-1.616 10.205-4.224 2.636-2.608 4.252-6.236 4.252-10.205 0-3.996-1.616-7.597-4.252-10.233zm-10.205 56.212c8.135 0 15.505 3.288 20.834 8.617 5.33 5.329 8.618 12.699 8.618 20.807 0 8.135-3.288 15.505-8.618 20.835-5.329 5.329-12.699 8.618-20.834 8.618-8.136 0-15.478-3.289-20.807-8.618s-8.617-12.699-8.617-20.835c0-8.107 3.288-15.478 8.617-20.807s12.671-8.617 20.807-8.617zm10.205 19.219c-2.608-2.608-6.208-4.224-10.205-4.224-3.969 0-7.597 1.616-10.205 4.224s-4.224 6.236-4.224 10.205c0 3.997 1.616 7.597 4.224 10.233 2.608 2.608 6.236 4.224 10.205 4.224 3.997 0 7.597-1.616 10.205-4.224 2.636-2.636 4.252-6.236 4.252-10.233 0-3.969-1.616-7.597-4.252-10.205zm-10.205-170.081c8.135 0 15.505 3.317 20.834 8.618 5.33 5.329 8.618 12.699 8.618 20.835s-3.288 15.478-8.618 20.807c-5.329 5.329-12.699 8.617-20.834 8.617-8.136 0-15.478-3.288-20.807-8.617-5.329-5.33-8.617-12.671-8.617-20.807 0-8.135 3.288-15.505 8.617-20.835 5.329-5.301 12.671-8.618 20.807-8.618zm10.205 19.248c-2.608-2.636-6.208-4.252-10.205-4.252-3.969 0-7.597 1.616-10.205 4.252-2.608 2.608-4.224 6.208-4.224 10.205 0 3.969 1.616 7.597 4.224 10.205 2.608 2.607 6.236 4.224 10.205 4.224 3.997 0 7.597-1.616 10.205-4.224 2.636-2.608 4.252-6.236 4.252-10.205 0-3.998-1.616-7.597-4.252-10.205zm-196.33 18.85c-3.09 2.722-7.824 2.381-10.545-.709-2.721-3.118-2.409-7.824.708-10.545l28.545-24.974c2.863-2.494 7.144-2.409 9.893.057l92.439 80.817c3.118 2.721 3.43 7.427.708 10.545-1.417 1.616-3.458 2.58-5.613 2.58h-14.939v106.356c0 4.139-3.345 7.512-7.483 7.512-46.715 0-93.431 0-140.146 0-4.139 0-7.512-3.374-7.512-7.512v-106.356h-14.91c-4.139 0-7.512-3.374-7.512-7.512 0-2.466 1.219-4.678 3.062-6.038l37.899-33.109c3.09-2.722 7.824-2.41 10.545.681 2.721 3.118 2.41 7.852-.709 10.573l-23.358 20.409h145.107l-72.54-63.439zm2.75 81.61h41.783c4.139 0 7.483 3.374 7.483 7.512v67.522h34.187v-98.873h-125.152v98.873h34.186v-67.522c0-4.138 3.374-7.512 7.513-7.512zm34.271 15.025h-26.788v60.01h26.788zm79.371 146.977c-4.139 0-7.512-3.373-7.512-7.512s3.373-7.483 7.512-7.483h44.136c4.139 0 7.512 3.345 7.512 7.483s-3.373 7.512-7.512 7.512zm269.719-34.497h-482.008v22.989c0 8.532 3.487 16.271 9.1 21.883 5.641 5.613 13.379 9.1 21.883 9.1h420.071c8.504 0 16.243-3.487 21.855-9.1 5.613-5.612 9.1-13.351 9.1-21.883v-22.989zm-482.008-14.996h482.009v-186.324c0-4.138 3.374-7.483 7.512-7.483s7.483 3.345 7.483 7.483v224.309c0 12.671-5.159 24.151-13.493 32.485-8.334 8.335-19.814 13.494-32.457 13.494h-146.355v59.386h29.679c7.71 0 14.712 3.147 19.787 8.221 5.074 5.074 8.249 12.076 8.249 19.786 0 7.711-3.175 14.74-8.249 19.814-5.075 5.074-12.076 8.221-19.787 8.221h-200.043c-7.71 0-14.74-3.147-19.814-8.221s-8.22-12.103-8.22-19.814c0-7.71 3.146-14.712 8.22-19.786s12.076-8.221 19.814-8.221h29.679v-59.386h-133.032c-12.642 0-24.151-5.159-32.485-13.494-8.334-8.334-13.493-19.814-13.493-32.485v-54.738c0-4.167 3.373-7.512 7.512-7.512 4.138 0 7.483 3.345 7.483 7.512v16.753zm251.351 158.345c-4.139 0-7.512-3.345-7.512-7.483 0-4.167 3.374-7.512 7.512-7.512h38.353v-59.386h-110.694v59.386h38.353c4.139 0 7.513 3.345 7.513 7.512 0 4.139-3.374 7.483-7.513 7.483h-45.836-37.191c-3.572 0-6.832 1.475-9.213 3.828-2.353 2.381-3.827 5.612-3.827 9.184s1.474 6.831 3.827 9.184c2.381 2.381 5.641 3.855 9.213 3.855h200.043c3.572 0 6.832-1.474 9.185-3.855 2.381-2.353 3.827-5.612 3.827-9.184s-1.446-6.803-3.827-9.184c-2.353-2.353-5.613-3.828-9.185-3.828h-37.191z"/></g></svg>